<mxfile host="app.diagrams.net" modified="2024-01-06T10:23:17.318Z" agent="Mozilla/5.0 (Windows NT 10.0; Win64; x64) AppleWebKit/537.36 (KHTML, like Gecko) Chrome/120.0.0.0 Safari/537.36" version="22.1.17" etag="m-xKZiYsD_Bf_29gRahS" type="github">
  <diagram name="페이지-1" id="uro6GCiFU421BLhvp1OQ">
    <mxGraphModel>
      <root>
        <mxCell id="0" />
        <mxCell id="1" parent="0" />
      </root>
    </mxGraphModel>
  </diagram>
</mxfile>
